Coordinates
nRows=15
nColumns=24

# SIMM Motion File Header:
name Coordinates
datacolumns 24
datarows 15
otherdata 1
range 0.74233000000000005000 0.75633000000000006000
endheader
time	pelvis_tx	pelvis_ty	pelvis_tz	pelvis_tilt	pelvis_list	pelvis_rotation	hip_flexion_r	hip_adduction_r	hip_rotation_r	knee_angle_r	ankle_angle_r	subtalar_angle_r	mtp_angle_r	hip_flexion_l	hip_adduction_l	hip_rotation_l	knee_angle_l	ankle_angle_l	subtalar_angle_l	mtp_angle_l	lumbar_extension	lumbar_bending	lumbar_rotation
      0.74233000000000005000	     -0.67048436924484967000	      0.79287232168017963000	      0.22244229906703017000	     -2.39806527248267810000	     -2.08219424382911280000	      2.63090266842567780000	     26.47501005135928100000	      2.57298276236171430000	     -4.71887845959971130000	      0.45877803704157183000	     -4.00709572003448060000	      0.00000000000000702837	     -0.00000000000001502726	    -11.95707075227206700000	      3.04397088281223870000	    -10.08576343864481700000	      6.93007894100434460000	      7.54586775631890740000	     -0.00000000000003037964	      0.00000000000015660717	      3.40110431394360990000	     -1.87368433256634440000	     -7.36327871504024680000
      0.74333000000000005000	     -0.66982986271418621000	      0.79278636949269166000	      0.22245883455783572000	     -2.39230140275075300000	     -2.08841262934406700000	      2.62694889693397030000	     26.44361578390720900000	      2.61433464307850590000	     -4.71020167362736690000	      0.53009630551275855000	     -4.01202556354258630000	      0.00000000000000703922	     -0.00000000000001505512	    -11.97210836883188300000	      3.04066357771961600000	    -10.08650281528584500000	      6.85438223073518230000	      7.58718180060532350000	     -0.00000000000002994259	      0.00000000000015585617	      3.39565114593433530000	     -1.86512595524702320000	     -7.37139088283489400000
      0.74433000000000005000	     -0.66917408554850888000	      0.79270015714447950000	      0.22247599575643395000	     -2.38650976887961930000	     -2.09316876288826140000	      2.62181530672518990000	     26.41209565530377600000	      2.65445886065069560000	     -4.69993497691723580000	      0.60127873240802243000	     -4.02481616977145240000	      0.00000000000000705560	     -0.00000000000001508347	    -11.98858128782193900000	      3.03954378855020880000	    -10.08734343307584100000	      6.78192351135689010000	      7.62339552553819910000	     -0.00000000000002952183	      0.00000000000015513527	      3.39018390081395890000	     -1.85791765151958790000	     -7.37839702162736180000
      0.74533000000000005000	     -0.66851658721498253000	      0.79261359021634670000	      0.22249400208169529000	     -2.38068169600306500000	     -2.09594688661487010000	      2.61508586036540480000	     26.38040636505109000000	      2.69292169755458580000	     -4.68751874056931680000	      0.67227570583824836000	     -4.04824021150049780000	      0.00000000000000707955	     -0.00000000000001511254	    -12.00699505907055300000	      3.04138326681722710000	    -10.08831720444705700000	      6.71384509762288410000	      7.65273636014120660000	     -0.00000000000002912305	      0.00000000000015445520	      3.38469896555010010000	     -1.85253508311499050000	     -7.38390762150966400000
      0.74633000000000005000	     -0.66785908888145629000	      0.79252702328821378000	      0.22251200840695665000	     -2.37485362312651070000	     -2.09872501034147830000	      2.60835641400561970000	     26.34871707479840800000	      2.73138453445847600000	     -4.67510250422139690000	      0.74327267926847429000	     -4.07166425322954330000	      0.00000000000000710351	     -0.00000000000001514160	    -12.02540883031916700000	      3.04322274508424510000	    -10.08929097581827200000	      6.64576668388887800000	      7.68207719474421320000	     -0.00000000000002872427	      0.00000000000015377514	      3.37921403028624120000	     -1.84715251471039330000	     -7.38941822139196520000
      0.74733000000000005000	     -0.66719830406104275000	      0.79243953304503956000	      0.22253028035626854000	     -2.36885726604495210000	     -2.09937881791897630000	      2.59991294253073720000	     26.31662446692805100000	      2.76779328714062610000	     -4.66056201491699080000	      0.81306788152159004000	     -4.10381210972773310000	      0.00000000000000712416	     -0.00000000000001515726	    -12.04662927614560400000	      3.04837689028072490000	    -10.08877536142157900000	      6.58337925094101810000	      7.71354480265822940000	     -0.00000000000002832443	      0.00000000000015307215	      3.37360586989215030000	     -1.84340542577584590000	     -7.39355537826851710000
      0.74833000000000005000	     -0.66653724248346369000	      0.79235196504891425000	      0.22254857467395184000	     -2.36284673764271340000	     -2.09985373547305440000	      2.59132513190317710000	     26.28449789542281000000	      2.80402906407493990000	     -4.64584264091065520000	      0.88276188185421578000	     -4.13669460425473630000	      0.00000000000000714454	     -0.00000000000001517179	    -12.06808607383575300000	      3.05381016570218920000	    -10.08813432489550600000	      6.52147105912990720000	      7.74519150751484190000	     -0.00000000000002792450	      0.00000000000015236723	      3.36798733263092310000	     -1.83979606161490230000	     -7.39757687662994370000
      0.74933000000000005000	     -0.66587470965457873000	      0.79226386364314305000	      0.22256629213609139000	     -2.35672195799048320000	     -2.10021099108454390000	      2.58266563750231850000	     26.25221416975008600000	      2.83990626105933020000	     -4.63099918626816010000	      0.95127532002688908000	     -4.16572858125290410000	      0.00000000000000716279	     -0.00000000000001518884	    -12.09032631108466300000	      3.05953619663928400000	    -10.08613386935304800000	      6.46079451391352410000	      7.78349340617326750000	     -0.00000000000002751603	      0.00000000000015162307	      3.36228149407400420000	     -1.83598964401434420000	     -7.40175691040495740000
      0.75033000000000005000	     -0.66521016442368142000	      0.79217503263078415000	      0.22258322056562141000	     -2.35044090357779870000	     -2.10040730673350410000	      2.57390809284379030000	     26.21971548599261900000	      2.87529298642278030000	     -4.61598601206728620000	      1.01817396563702190000	     -4.18949849195013170000	      0.00000000000000717814	     -0.00000000000001520934	    -12.11363814999555900000	      3.06566266344101960000	    -10.08227397786431600000	      6.40180263539942200000	      7.83089838963145280000	     -0.00000000000002709590	      0.00000000000015082523	      3.35645624335246890000	     -1.83191369344084620000	     -7.40615379155611550000
      0.75133000000000005000	     -0.66454561919278410000	      0.79208620161842525000	      0.22260014899515140000	     -2.34415984916511460000	     -2.10060362238246470000	      2.56515054818526260000	     26.18721680223515600000	      2.91067971178623040000	     -4.60097283786641140000	      1.08507261124715470000	     -4.21326840264735920000	      0.00000000000000719349	     -0.00000000000001522985	    -12.13694998890645500000	      3.07178913024275510000	    -10.07841408637558300000	      6.34281075688532070000	      7.87830337308963810000	     -0.00000000000002667577	      0.00000000000015002739	      3.35063099263093410000	     -1.82783774286734820000	     -7.41055067270727450000
      0.75233000000000005000	     -0.66387818642869822000	      0.79199585580211451000	      0.22261508705936817000	     -2.33796759711721420000	     -2.10152830202023950000	      2.55712064935802670000	     26.15492217743009800000	      2.94594516737740220000	     -4.58640728893193740000	      1.14848660732123030000	     -4.21770269264747720000	      0.00000000000000720963	     -0.00000000000001530232	    -12.16073344620555100000	      3.07706143285302100000	    -10.07165107003041300000	      6.28452354274995440000	      7.93935006375598200000	     -0.00000000000002622447	      0.00000000000014909303	      3.34501182872735200000	     -1.82231953356250180000	     -7.41624963145074820000
      0.75333000000000006000	     -0.66321051050359314000	      0.79190538242319286000	      0.22262985751364717000	     -2.33178282317332510000	     -2.10251431765598800000	      2.54915202605225890000	     26.12264473656011200000	      2.98120041076338450000	     -4.57187943480782530000	      1.21160715882615810000	     -4.22050871764534640000	      0.00000000000000722583	     -0.00000000000001537916	    -12.18455661879116100000	      3.08226180574968070000	    -10.06464357968180000000	      6.22629566885321940000	      8.00154553132304970000	     -0.00000000000002577054	      0.00000000000014814717	      3.33941001952669620000	     -1.81667987072620510000	     -7.42205823898217610000
      0.75433000000000006000	     -0.66254060303992246000	      0.79181347587762096000	      0.22264282826751766000	     -2.32600529288585680000	     -2.10434201410181170000	      2.54202858657331540000	     26.09095361706511800000	      3.01647412036652480000	     -4.55774281398281910000	      1.27160169131567960000	     -4.20549934047988130000	      0.00000000000000724240	     -0.00000000000001543514	    -12.20804134857875000000	      3.08632349316354570000	    -10.05614699107432100000	      6.16794104622183600000	      8.06748344196904910000	     -0.00000000000002529584	      0.00000000000014719302	      3.33436022938673290000	     -1.80962385511459820000	     -7.42922079399520640000
      0.75533000000000006000	     -0.66186995173006302000	      0.79172109160983239000	      0.22265519912125201000	     -2.32036351048386220000	     -2.10645027081766050000	      2.53518687503664620000	     26.05945793802844800000	      3.05175398537538410000	     -4.54373660425751510000	      1.33055421746673240000	     -4.18455149592663740000	      0.00000000000000725908	     -0.00000000000001548415	    -12.23141326410033100000	      3.09000561874981280000	    -10.04715403638055400000	      6.10954417401223710000	      8.13466883364136170000	     -0.00000000000002481421	      0.00000000000014623611	      3.32949444560033440000	     -1.80209572191122170000	     -7.43683466483543750000
      0.75633000000000006000	     -0.66119853347709134000	      0.79162831219804441000	      0.22266697810338698000	     -2.31486461151039970000	     -2.10887417444197570000	      2.52862923942210570000	     26.02813532384762100000	      3.08705067129658420000	     -4.52981961188995630000	      1.38853327170833960000	     -4.15927899005926440000	      0.00000000000000727603	     -0.00000000000001552379	    -12.25461874525931600000	      3.09323510368205400000	    -10.03813615745501100000	      6.05103938441390010000	      8.20003294159363700000	     -0.00000000000002432060	      0.00000000000014525818	      3.32481898212272050000	     -1.79404756341080710000	     -7.44491653052487830000
